# xmcd CD database file
#
# Track frame offsets:
#	183
#	12483
#	23658
#	37758
#	50808
#	60933
#	71658
#	82533
#	95433
#	106458
#	115608
#	128658
#	139458
#	152508
#	163158
#	178833
#	191958
#	208608
#	220458
#	230058
#	241833
#	254658
#	272583
#	284808
#	296883
#	312183
#
# Disc length: 4368 seconds
#
# Revision: 0
# Processed by: cddbd v1.5.2PL0 Copyright (c) Steve Scherf et al.
# Submitted via: CDex 1.51
#
DISCID=85110e1a
DTITLE=Intersound - ISCD 155 - Berg und Tal - (Die Oberländer Blasmusik)
DYEAR=1994
DGENRE=Contentum
TTITLE0=Ratsch-bumm
TTITLE1=Oberländer
TTITLE2=Altrhein-promenade
TTITLE3=Good morning polka
TTITLE4=Karlsbader polka
TTITLE5=Mensch ärgere dich nicht
TTITLE6=Berg und tal
TTITLE7=Knödel und kraut
TTITLE8='S fensterln
TTITLE9=Übermut tut gut
TTITLE10=Links herum - rechts herum
TTITLE11=Polka mit pfiff
TTITLE12=Kinderspiele
TTITLE13=Im försterhaus
TTITLE14=Kuckuckstaler walzer
TTITLE15=Schürzenjäger marsch
TTITLE16=Dauerläufer
TTITLE17=Bauenrosen
TTITLE18=Bauernhochzeit
TTITLE19=Bauern walzer
TTITLE20=Bravo
TTITLE21=Tegernseer dirndl
TTITLE22=Der almdudler
TTITLE23=Auf der gibler-alm
TTITLE24=Gamsbart-polka
TTITLE25=Champagner perlen
EXTD=YEAR: 1994
EXTT0=
EXTT1=
EXTT2=
EXTT3=
EXTT4=
EXTT5=
EXTT6=
EXTT7=
EXTT8=
EXTT9=
EXTT10=
EXTT11=
EXTT12=
EXTT13=
EXTT14=
EXTT15=
EXTT16=
EXTT17=
EXTT18=
EXTT19=
EXTT20=
EXTT21=
EXTT22=
EXTT23=
EXTT24=
EXTT25=
PLAYORDER=
